<mxfile host="app.diagrams.net" modified="2021-09-15T02:21:37.673Z" agent="5.0 (Macintosh; Intel Mac OS X 10_15_7) AppleWebKit/537.36 (KHTML, like Gecko) Chrome/93.0.4577.63 Safari/537.36" etag="MeQsaxTAqH9-F7GSq3YQ" version="15.2.7" type="github">
  <diagram id="X_H3xvyzd0mp_1z1Q8WX" name="Page-1">
    <mxGraphModel dx="706" dy="1983" grid="1" gridSize="10" guides="1" tooltips="1" connect="1" arrows="1" fold="1" page="1" pageScale="1" pageWidth="827" pageHeight="1169" math="0" shadow="0">
      <root>
        <mxCell id="0" />
        <mxCell id="1" parent="0" />
        <mxCell id="aHMbxxOZ74i9oZcFTolp-3" style="edgeStyle=orthogonalEdgeStyle;rounded=0;orthogonalLoop=1;jettySize=auto;html=1;exitX=0.5;exitY=1;exitDx=0;exitDy=0;entryX=0.5;entryY=0;entryDx=0;entryDy=0;" edge="1" parent="1" source="aHMbxxOZ74i9oZcFTolp-1" target="aHMbxxOZ74i9oZcFTolp-2">
          <mxGeometry relative="1" as="geometry" />
        </mxCell>
        <mxCell id="aHMbxxOZ74i9oZcFTolp-1" value="socket()" style="rounded=0;whiteSpace=wrap;html=1;" vertex="1" parent="1">
          <mxGeometry x="110" y="200" width="120" height="40" as="geometry" />
        </mxCell>
        <mxCell id="aHMbxxOZ74i9oZcFTolp-7" style="edgeStyle=orthogonalEdgeStyle;rounded=0;orthogonalLoop=1;jettySize=auto;html=1;exitX=0.5;exitY=1;exitDx=0;exitDy=0;entryX=0.5;entryY=0;entryDx=0;entryDy=0;" edge="1" parent="1" source="aHMbxxOZ74i9oZcFTolp-2" target="aHMbxxOZ74i9oZcFTolp-4">
          <mxGeometry relative="1" as="geometry" />
        </mxCell>
        <mxCell id="aHMbxxOZ74i9oZcFTolp-2" value="connect()" style="rounded=0;whiteSpace=wrap;html=1;" vertex="1" parent="1">
          <mxGeometry x="110" y="280" width="120" height="40" as="geometry" />
        </mxCell>
        <mxCell id="aHMbxxOZ74i9oZcFTolp-26" style="rounded=0;orthogonalLoop=1;jettySize=auto;html=1;exitX=1;exitY=0.5;exitDx=0;exitDy=0;" edge="1" parent="1" source="aHMbxxOZ74i9oZcFTolp-2">
          <mxGeometry relative="1" as="geometry">
            <mxPoint x="510" y="300" as="targetPoint" />
          </mxGeometry>
        </mxCell>
        <mxCell id="aHMbxxOZ74i9oZcFTolp-8" style="edgeStyle=orthogonalEdgeStyle;rounded=0;orthogonalLoop=1;jettySize=auto;html=1;exitX=0.5;exitY=1;exitDx=0;exitDy=0;entryX=0.5;entryY=0;entryDx=0;entryDy=0;" edge="1" parent="1" source="aHMbxxOZ74i9oZcFTolp-4" target="aHMbxxOZ74i9oZcFTolp-5">
          <mxGeometry relative="1" as="geometry" />
        </mxCell>
        <mxCell id="aHMbxxOZ74i9oZcFTolp-37" style="rounded=0;orthogonalLoop=1;jettySize=auto;html=1;exitX=1;exitY=0.5;exitDx=0;exitDy=0;entryX=0;entryY=0.5;entryDx=0;entryDy=0;" edge="1" parent="1" source="aHMbxxOZ74i9oZcFTolp-4" target="aHMbxxOZ74i9oZcFTolp-14">
          <mxGeometry relative="1" as="geometry" />
        </mxCell>
        <mxCell id="aHMbxxOZ74i9oZcFTolp-4" value="write()" style="rounded=0;whiteSpace=wrap;html=1;" vertex="1" parent="1">
          <mxGeometry x="110" y="350" width="120" height="40" as="geometry" />
        </mxCell>
        <mxCell id="aHMbxxOZ74i9oZcFTolp-9" style="edgeStyle=orthogonalEdgeStyle;rounded=0;orthogonalLoop=1;jettySize=auto;html=1;exitX=0.5;exitY=1;exitDx=0;exitDy=0;entryX=0.5;entryY=0;entryDx=0;entryDy=0;" edge="1" parent="1" source="aHMbxxOZ74i9oZcFTolp-5" target="aHMbxxOZ74i9oZcFTolp-6">
          <mxGeometry relative="1" as="geometry" />
        </mxCell>
        <mxCell id="aHMbxxOZ74i9oZcFTolp-25" style="edgeStyle=orthogonalEdgeStyle;rounded=0;orthogonalLoop=1;jettySize=auto;html=1;exitX=0;exitY=0.5;exitDx=0;exitDy=0;entryX=0;entryY=0.5;entryDx=0;entryDy=0;" edge="1" parent="1" source="aHMbxxOZ74i9oZcFTolp-5" target="aHMbxxOZ74i9oZcFTolp-4">
          <mxGeometry relative="1" as="geometry" />
        </mxCell>
        <mxCell id="aHMbxxOZ74i9oZcFTolp-5" value="read()" style="rounded=0;whiteSpace=wrap;html=1;" vertex="1" parent="1">
          <mxGeometry x="110" y="410" width="120" height="40" as="geometry" />
        </mxCell>
        <mxCell id="aHMbxxOZ74i9oZcFTolp-40" style="rounded=0;orthogonalLoop=1;jettySize=auto;html=1;exitX=1;exitY=0.5;exitDx=0;exitDy=0;entryX=0;entryY=0.5;entryDx=0;entryDy=0;" edge="1" parent="1" source="aHMbxxOZ74i9oZcFTolp-6" target="aHMbxxOZ74i9oZcFTolp-16">
          <mxGeometry relative="1" as="geometry" />
        </mxCell>
        <mxCell id="aHMbxxOZ74i9oZcFTolp-6" value="close()" style="rounded=0;whiteSpace=wrap;html=1;" vertex="1" parent="1">
          <mxGeometry x="110" y="480" width="120" height="40" as="geometry" />
        </mxCell>
        <mxCell id="aHMbxxOZ74i9oZcFTolp-18" style="edgeStyle=orthogonalEdgeStyle;rounded=0;orthogonalLoop=1;jettySize=auto;html=1;exitX=0.5;exitY=1;exitDx=0;exitDy=0;entryX=0.5;entryY=0;entryDx=0;entryDy=0;" edge="1" parent="1" source="aHMbxxOZ74i9oZcFTolp-10" target="aHMbxxOZ74i9oZcFTolp-11">
          <mxGeometry relative="1" as="geometry" />
        </mxCell>
        <mxCell id="aHMbxxOZ74i9oZcFTolp-10" value="socket()" style="rounded=0;whiteSpace=wrap;html=1;" vertex="1" parent="1">
          <mxGeometry x="450" y="10" width="120" height="40" as="geometry" />
        </mxCell>
        <mxCell id="aHMbxxOZ74i9oZcFTolp-19" style="edgeStyle=orthogonalEdgeStyle;rounded=0;orthogonalLoop=1;jettySize=auto;html=1;exitX=0.5;exitY=1;exitDx=0;exitDy=0;entryX=0.5;entryY=0;entryDx=0;entryDy=0;" edge="1" parent="1" source="aHMbxxOZ74i9oZcFTolp-11" target="aHMbxxOZ74i9oZcFTolp-12">
          <mxGeometry relative="1" as="geometry" />
        </mxCell>
        <mxCell id="aHMbxxOZ74i9oZcFTolp-11" value="bind()" style="rounded=0;whiteSpace=wrap;html=1;" vertex="1" parent="1">
          <mxGeometry x="450" y="80" width="120" height="40" as="geometry" />
        </mxCell>
        <mxCell id="aHMbxxOZ74i9oZcFTolp-20" style="edgeStyle=orthogonalEdgeStyle;rounded=0;orthogonalLoop=1;jettySize=auto;html=1;exitX=0.5;exitY=1;exitDx=0;exitDy=0;entryX=0.5;entryY=0;entryDx=0;entryDy=0;" edge="1" parent="1" source="aHMbxxOZ74i9oZcFTolp-12" target="aHMbxxOZ74i9oZcFTolp-13">
          <mxGeometry relative="1" as="geometry" />
        </mxCell>
        <mxCell id="aHMbxxOZ74i9oZcFTolp-12" value="listen()" style="rounded=0;whiteSpace=wrap;html=1;" vertex="1" parent="1">
          <mxGeometry x="450" y="150" width="120" height="40" as="geometry" />
        </mxCell>
        <mxCell id="aHMbxxOZ74i9oZcFTolp-21" style="edgeStyle=orthogonalEdgeStyle;rounded=0;orthogonalLoop=1;jettySize=auto;html=1;exitX=0.5;exitY=1;exitDx=0;exitDy=0;entryX=0.5;entryY=0;entryDx=0;entryDy=0;" edge="1" parent="1" source="aHMbxxOZ74i9oZcFTolp-13" target="aHMbxxOZ74i9oZcFTolp-14">
          <mxGeometry relative="1" as="geometry" />
        </mxCell>
        <mxCell id="aHMbxxOZ74i9oZcFTolp-13" value="accept()" style="rounded=0;whiteSpace=wrap;html=1;" vertex="1" parent="1">
          <mxGeometry x="450" y="220" width="120" height="40" as="geometry" />
        </mxCell>
        <mxCell id="aHMbxxOZ74i9oZcFTolp-22" style="edgeStyle=orthogonalEdgeStyle;rounded=0;orthogonalLoop=1;jettySize=auto;html=1;exitX=0.5;exitY=1;exitDx=0;exitDy=0;entryX=0.5;entryY=0;entryDx=0;entryDy=0;" edge="1" parent="1" source="aHMbxxOZ74i9oZcFTolp-14" target="aHMbxxOZ74i9oZcFTolp-15">
          <mxGeometry relative="1" as="geometry" />
        </mxCell>
        <mxCell id="aHMbxxOZ74i9oZcFTolp-14" value="read()" style="rounded=0;whiteSpace=wrap;html=1;" vertex="1" parent="1">
          <mxGeometry x="450" y="330" width="120" height="40" as="geometry" />
        </mxCell>
        <mxCell id="aHMbxxOZ74i9oZcFTolp-23" style="edgeStyle=orthogonalEdgeStyle;rounded=0;orthogonalLoop=1;jettySize=auto;html=1;exitX=0.5;exitY=1;exitDx=0;exitDy=0;entryX=0.5;entryY=0;entryDx=0;entryDy=0;" edge="1" parent="1" source="aHMbxxOZ74i9oZcFTolp-15" target="aHMbxxOZ74i9oZcFTolp-16">
          <mxGeometry relative="1" as="geometry" />
        </mxCell>
        <mxCell id="aHMbxxOZ74i9oZcFTolp-38" style="edgeStyle=orthogonalEdgeStyle;rounded=0;orthogonalLoop=1;jettySize=auto;html=1;exitX=1;exitY=0.5;exitDx=0;exitDy=0;entryX=1;entryY=0.5;entryDx=0;entryDy=0;" edge="1" parent="1" source="aHMbxxOZ74i9oZcFTolp-15" target="aHMbxxOZ74i9oZcFTolp-14">
          <mxGeometry relative="1" as="geometry" />
        </mxCell>
        <mxCell id="aHMbxxOZ74i9oZcFTolp-39" style="edgeStyle=orthogonalEdgeStyle;rounded=0;orthogonalLoop=1;jettySize=auto;html=1;exitX=0;exitY=0.5;exitDx=0;exitDy=0;entryX=1;entryY=0.5;entryDx=0;entryDy=0;" edge="1" parent="1" source="aHMbxxOZ74i9oZcFTolp-15" target="aHMbxxOZ74i9oZcFTolp-5">
          <mxGeometry relative="1" as="geometry" />
        </mxCell>
        <mxCell id="aHMbxxOZ74i9oZcFTolp-15" value="write()" style="rounded=0;whiteSpace=wrap;html=1;" vertex="1" parent="1">
          <mxGeometry x="450" y="410" width="120" height="40" as="geometry" />
        </mxCell>
        <mxCell id="aHMbxxOZ74i9oZcFTolp-24" style="edgeStyle=orthogonalEdgeStyle;rounded=0;orthogonalLoop=1;jettySize=auto;html=1;exitX=0.5;exitY=1;exitDx=0;exitDy=0;entryX=0.5;entryY=0;entryDx=0;entryDy=0;" edge="1" parent="1" source="aHMbxxOZ74i9oZcFTolp-16" target="aHMbxxOZ74i9oZcFTolp-17">
          <mxGeometry relative="1" as="geometry" />
        </mxCell>
        <mxCell id="aHMbxxOZ74i9oZcFTolp-16" value="read()" style="rounded=0;whiteSpace=wrap;html=1;" vertex="1" parent="1">
          <mxGeometry x="450" y="487" width="120" height="40" as="geometry" />
        </mxCell>
        <mxCell id="aHMbxxOZ74i9oZcFTolp-17" value="close()" style="rounded=0;whiteSpace=wrap;html=1;" vertex="1" parent="1">
          <mxGeometry x="450" y="562" width="120" height="40" as="geometry" />
        </mxCell>
        <mxCell id="aHMbxxOZ74i9oZcFTolp-27" value="client" style="text;html=1;align=center;verticalAlign=middle;resizable=0;points=[];autosize=1;strokeColor=none;fillColor=none;" vertex="1" parent="1">
          <mxGeometry x="150" y="170" width="40" height="20" as="geometry" />
        </mxCell>
        <mxCell id="aHMbxxOZ74i9oZcFTolp-30" value="svr" style="text;html=1;align=center;verticalAlign=middle;resizable=0;points=[];autosize=1;strokeColor=none;fillColor=none;" vertex="1" parent="1">
          <mxGeometry x="495" y="-30" width="30" height="20" as="geometry" />
        </mxCell>
        <mxCell id="aHMbxxOZ74i9oZcFTolp-34" style="edgeStyle=orthogonalEdgeStyle;rounded=0;orthogonalLoop=1;jettySize=auto;html=1;" edge="1" parent="1" source="aHMbxxOZ74i9oZcFTolp-33">
          <mxGeometry relative="1" as="geometry">
            <mxPoint x="510" y="200" as="targetPoint" />
          </mxGeometry>
        </mxCell>
        <mxCell id="aHMbxxOZ74i9oZcFTolp-33" value="blocks until connection from client" style="text;html=1;align=center;verticalAlign=middle;resizable=0;points=[];autosize=1;strokeColor=none;fillColor=none;" vertex="1" parent="1">
          <mxGeometry x="620" y="190" width="190" height="20" as="geometry" />
        </mxCell>
        <mxCell id="aHMbxxOZ74i9oZcFTolp-35" value="connection establishment" style="text;html=1;align=center;verticalAlign=middle;resizable=0;points=[];autosize=1;strokeColor=none;fillColor=none;" vertex="1" parent="1">
          <mxGeometry x="245" y="280" width="150" height="20" as="geometry" />
        </mxCell>
        <mxCell id="aHMbxxOZ74i9oZcFTolp-36" value="three-way handshakes" style="text;html=1;align=center;verticalAlign=middle;resizable=0;points=[];autosize=1;strokeColor=none;fillColor=none;" vertex="1" parent="1">
          <mxGeometry x="240" y="300" width="140" height="20" as="geometry" />
        </mxCell>
        <mxCell id="aHMbxxOZ74i9oZcFTolp-42" value="data(request)" style="text;html=1;align=center;verticalAlign=middle;resizable=0;points=[];autosize=1;strokeColor=none;fillColor=none;rotation=354;" vertex="1" parent="1">
          <mxGeometry x="275" y="340" width="90" height="20" as="geometry" />
        </mxCell>
        <mxCell id="aHMbxxOZ74i9oZcFTolp-43" value="data(reply)" style="text;html=1;align=center;verticalAlign=middle;resizable=0;points=[];autosize=1;strokeColor=none;fillColor=none;rotation=0;" vertex="1" parent="1">
          <mxGeometry x="285" y="410" width="70" height="20" as="geometry" />
        </mxCell>
        <mxCell id="aHMbxxOZ74i9oZcFTolp-44" value="end-of-file notification" style="text;html=1;align=center;verticalAlign=middle;resizable=0;points=[];autosize=1;strokeColor=none;fillColor=none;rotation=2;" vertex="1" parent="1">
          <mxGeometry x="245" y="485" width="130" height="20" as="geometry" />
        </mxCell>
      </root>
    </mxGraphModel>
  </diagram>
</mxfile>
